<?xml version="1.0" encoding="UTF-8"?> <svg xmlns="http://www.w3.org/2000/svg" width="93" height="14" viewBox="0 0 93 14" fill="none"><path d="M13.6219 12.7585L2.31331 1.44997H13.1743C13.5324 1.44997 13.8009 1.18143 13.8009 0.823373C13.8009 0.465319 13.5324 0.196777 13.1743 0.196777H0.821417C0.463362 0.196777 0.194824 0.465319 0.194824 0.823373V13.1763C0.194824 13.5343 0.463362 13.8029 0.821417 13.8029C1.17947 13.8029 1.44802 13.5343 1.44802 13.1763V2.31527L12.7566 13.6238C12.9953 13.8625 13.3832 13.8625 13.6517 13.6238C13.8606 13.3851 13.8606 12.9972 13.6219 12.7585Z" fill="#185225"></path><path d="M27.3396 13.5V1.58H31.7876C32.5983 1.58 33.313 1.72933 33.9316 2.028C34.561 2.316 35.0516 2.74267 35.4036 3.308C35.7556 3.86267 35.9316 4.54 35.9316 5.34C35.9316 6.12933 35.7503 6.80667 35.3876 7.372C35.0356 7.92667 34.5503 8.35333 33.9316 8.652C33.313 8.95067 32.5983 9.1 31.7876 9.1H29.5156V13.5H27.3396ZM29.5156 7.18H31.8196C32.2143 7.18 32.5556 7.10533 32.8436 6.956C33.1316 6.796 33.3556 6.57733 33.5156 6.3C33.6756 6.02267 33.7556 5.70267 33.7556 5.34C33.7556 4.96667 33.6756 4.64667 33.5156 4.38C33.3556 4.10267 33.1316 3.88933 32.8436 3.74C32.5556 3.58 32.2143 3.5 31.8196 3.5H29.5156V7.18Z" fill="#185225"></path><path d="M37.5386 13.5V4.796H39.5066V6.732L39.3466 6.444C39.5493 5.79333 39.864 5.34 40.2906 5.084C40.728 4.828 41.2506 4.7 41.8586 4.7H42.3706V6.556H41.6186C41.0213 6.556 40.5413 6.74267 40.1786 7.116C39.816 7.47867 39.6346 7.99067 39.6346 8.652V13.5H37.5386Z" fill="#185225"></path><path d="M47.651 13.692C46.755 13.692 45.971 13.4893 45.299 13.084C44.627 12.6787 44.1043 12.1293 43.731 11.436C43.3577 10.7427 43.171 9.97467 43.171 9.132C43.171 8.25733 43.3577 7.484 43.731 6.812C44.115 6.12933 44.6323 5.59067 45.283 5.196C45.9443 4.80133 46.6803 4.604 47.491 4.604C48.1737 4.604 48.771 4.716 49.283 4.94C49.8057 5.164 50.2483 5.47333 50.611 5.868C50.9737 6.26267 51.251 6.716 51.443 7.228C51.635 7.72933 51.731 8.27333 51.731 8.86C51.731 9.00933 51.7203 9.164 51.699 9.324C51.6883 9.484 51.6617 9.62267 51.619 9.74H44.899V8.14H50.435L49.443 8.892C49.539 8.40133 49.5123 7.964 49.363 7.58C49.2243 7.196 48.9897 6.892 48.659 6.668C48.339 6.444 47.9497 6.332 47.491 6.332C47.0537 6.332 46.6643 6.444 46.323 6.668C45.9817 6.88133 45.7203 7.20133 45.539 7.628C45.3683 8.044 45.3043 8.55067 45.347 9.148C45.3043 9.68133 45.3737 10.156 45.555 10.572C45.747 10.9773 46.0243 11.292 46.387 11.516C46.7603 11.74 47.187 11.852 47.667 11.852C48.147 11.852 48.5523 11.7507 48.883 11.548C49.2243 11.3453 49.491 11.0733 49.683 10.732L51.379 11.564C51.2083 11.98 50.9417 12.348 50.579 12.668C50.2163 12.988 49.7843 13.2387 49.283 13.42C48.7923 13.6013 48.2483 13.692 47.651 13.692Z" fill="#185225"></path><path d="M55.7876 13.5L52.3636 4.796H54.6516L57.1316 11.644H56.2836L58.7796 4.796H61.0676L57.6436 13.5H55.7876Z" fill="#185225"></path><path d="M62.2261 13.5V4.796H64.3221V13.5H62.2261ZM62.2261 3.82V1.58H64.3221V3.82H62.2261Z" fill="#185225"></path><path d="M70.5134 13.692C69.6601 13.692 68.8814 13.4947 68.1774 13.1C67.4841 12.7053 66.9294 12.1667 66.5134 11.484C66.1081 10.8013 65.9054 10.0227 65.9054 9.148C65.9054 8.27333 66.1081 7.49467 66.5134 6.812C66.9294 6.12933 67.4841 5.59067 68.1774 5.196C68.8707 4.80133 69.6494 4.604 70.5134 4.604C71.3667 4.604 72.1401 4.80133 72.8334 5.196C73.5267 5.59067 74.0761 6.12933 74.4814 6.812C74.8974 7.484 75.1054 8.26267 75.1054 9.148C75.1054 10.0227 74.8974 10.8013 74.4814 11.484C74.0654 12.1667 73.5107 12.7053 72.8174 13.1C72.1241 13.4947 71.3561 13.692 70.5134 13.692ZM70.5134 11.772C70.9827 11.772 71.3934 11.66 71.7454 11.436C72.1081 11.212 72.3907 10.9027 72.5934 10.508C72.8067 10.1027 72.9134 9.64933 72.9134 9.148C72.9134 8.636 72.8067 8.188 72.5934 7.804C72.3907 7.40933 72.1081 7.1 71.7454 6.876C71.3934 6.64133 70.9827 6.524 70.5134 6.524C70.0334 6.524 69.6121 6.64133 69.2494 6.876C68.8867 7.1 68.5987 7.40933 68.3854 7.804C68.1827 8.188 68.0814 8.636 68.0814 9.148C68.0814 9.64933 68.1827 10.1027 68.3854 10.508C68.5987 10.9027 68.8867 11.212 69.2494 11.436C69.6121 11.66 70.0334 11.772 70.5134 11.772Z" fill="#185225"></path><path d="M79.7989 13.692C79.1269 13.692 78.5402 13.5427 78.0389 13.244C77.5482 12.9453 77.1696 12.5293 76.9029 11.996C76.6469 11.4627 76.5189 10.8387 76.5189 10.124V4.796H78.6149V9.948C78.6149 10.3107 78.6842 10.6307 78.8229 10.908C78.9722 11.1747 79.1802 11.388 79.4469 11.548C79.7242 11.6973 80.0336 11.772 80.3749 11.772C80.7162 11.772 81.0202 11.6973 81.2869 11.548C81.5536 11.388 81.7616 11.1693 81.9109 10.892C82.0602 10.6147 82.1349 10.284 82.1349 9.9V4.796H84.2309V13.5H82.2469V11.788L82.4229 12.092C82.2202 12.6253 81.8842 13.0253 81.4149 13.292C80.9562 13.5587 80.4176 13.692 79.7989 13.692Z" fill="#185225"></path><path d="M89.4913 13.692C88.5633 13.692 87.7526 13.4733 87.0593 13.036C86.3766 12.588 85.9073 11.9853 85.6513 11.228L87.2193 10.476C87.4433 10.9667 87.7526 11.3507 88.1473 11.628C88.5526 11.9053 89.0006 12.044 89.4913 12.044C89.8753 12.044 90.1793 11.9587 90.4033 11.788C90.6273 11.6173 90.7393 11.3933 90.7393 11.116C90.7393 10.9453 90.6913 10.8067 90.5953 10.7C90.5099 10.5827 90.3873 10.4867 90.2273 10.412C90.0779 10.3267 89.9126 10.2573 89.7313 10.204L88.3073 9.804C87.5713 9.59067 87.0113 9.26533 86.6273 8.828C86.2539 8.39067 86.0673 7.87333 86.0673 7.276C86.0673 6.74267 86.2006 6.27867 86.4673 5.884C86.7446 5.47867 87.1233 5.164 87.6033 4.94C88.0939 4.716 88.6539 4.604 89.2833 4.604C90.1046 4.604 90.8299 4.80133 91.4593 5.196C92.0886 5.59067 92.5366 6.14533 92.8033 6.86L91.2033 7.612C91.0539 7.21733 90.8033 6.90267 90.4513 6.668C90.0993 6.43333 89.7046 6.316 89.2673 6.316C88.9153 6.316 88.6379 6.396 88.4353 6.556C88.2326 6.716 88.1313 6.924 88.1313 7.18C88.1313 7.34 88.1739 7.47867 88.2593 7.596C88.3446 7.71333 88.4619 7.80933 88.6113 7.884C88.7713 7.95867 88.9526 8.028 89.1553 8.092L90.5473 8.508C91.2619 8.72133 91.8113 9.04133 92.1953 9.468C92.5899 9.89467 92.7873 10.4173 92.7873 11.036C92.7873 11.5587 92.6486 12.0227 92.3713 12.428C92.0939 12.8227 91.7099 13.132 91.2193 13.356C90.7286 13.58 90.1526 13.692 89.4913 13.692Z" fill="#185225"></path></svg> 